<svg width="25" height="24" viewBox="0 0 25 24" fill="none" xmlns="http://www.w3.org/2000/svg">
    <path
        d="M24.0013 12.2658C24.0013 11.2792 23.9196 10.5592 23.7428 9.8125H12.2461V14.2658H18.9944C18.8584 15.3726 18.1236 17.0392 16.4909 18.1592L16.4681 18.3083L20.1031 21.068L20.355 21.0926C22.6679 18.9992 24.0013 15.9192 24.0013 12.2658Z"
        fill="#4285F4" />
    <path
        d="M12.2455 23.9998C15.5516 23.9998 18.327 22.9331 20.3544 21.0931L16.4903 18.1597C15.4563 18.8664 14.0685 19.3597 12.2455 19.3597C9.00742 19.3597 6.25911 17.2664 5.27942 14.373L5.13582 14.385L1.35607 17.2517L1.30664 17.3864C3.32024 21.3063 7.45633 23.9998 12.2455 23.9998Z"
        fill="#34A853" />
    <path
        d="M5.27888 14.3732C5.02039 13.6265 4.87078 12.8265 4.87078 11.9998C4.87078 11.1731 5.02039 10.3731 5.26528 9.62648L5.25843 9.4674L1.43131 6.55469L1.3061 6.61306C0.476197 8.23979 0 10.0665 0 11.9998C0 13.9331 0.476197 15.7598 1.3061 17.3865L5.27888 14.3732Z"
        fill="#FBBC05" />
    <path
        d="M12.2456 4.64C14.5449 4.64 16.0959 5.61334 16.9803 6.42673L20.436 3.12002C18.3137 1.18668 15.5517 0 12.2456 0C7.45633 0 3.32024 2.69333 1.30664 6.61332L5.26584 9.62672C6.25914 6.73337 9.00742 4.64 12.2456 4.64Z"
        fill="#EB4335" />
</svg>